G04*
G04 #@! TF.GenerationSoftware,Altium Limited,Altium Designer,20.0.13 (296)*
G04*
G04 Layer_Physical_Order=2*
G04 Layer_Color=16711680*
%FSLAX44Y44*%
%MOMM*%
G71*
G01*
G75*
%ADD13R,0.8000X0.8000*%
%ADD14R,1.3000X0.7000*%
%ADD19C,0.5000*%
%ADD20R,2.0000X1.6000*%
%ADD21O,2.0000X1.6000*%
%ADD22C,0.6000*%
G36*
X165000Y137930D02*
X143069Y116000D01*
X127000D01*
Y94000D01*
X153000D01*
Y110070D01*
X163827Y120896D01*
X165000Y120410D01*
Y10000D01*
X10000D01*
Y190000D01*
X165000D01*
Y137930D01*
D02*
G37*
%LPC*%
G36*
X142000Y90631D02*
X141270D01*
Y81270D01*
X152464D01*
X152269Y82752D01*
X151207Y85316D01*
X149517Y87517D01*
X147316Y89207D01*
X144752Y90269D01*
X142000Y90631D01*
D02*
G37*
G36*
X138730D02*
X138000D01*
X135248Y90269D01*
X132684Y89207D01*
X130483Y87517D01*
X128793Y85316D01*
X127731Y82752D01*
X127536Y81270D01*
X138730D01*
Y90631D01*
D02*
G37*
G36*
X152464Y78730D02*
X141270D01*
Y69369D01*
X142000D01*
X144752Y69731D01*
X147316Y70793D01*
X149517Y72483D01*
X151207Y74685D01*
X152269Y77249D01*
X152464Y78730D01*
D02*
G37*
G36*
X138730D02*
X127536D01*
X127731Y77249D01*
X128793Y74685D01*
X130483Y72483D01*
X132684Y70793D01*
X135248Y69731D01*
X138000Y69369D01*
X138730D01*
Y78730D01*
D02*
G37*
G36*
X96270Y52146D02*
Y48020D01*
X100396D01*
X100218Y48912D01*
X98994Y50744D01*
X97162Y51969D01*
X96270Y52146D01*
D02*
G37*
G36*
X93730D02*
X92838Y51969D01*
X91006Y50744D01*
X89781Y48912D01*
X89604Y48020D01*
X93730D01*
Y52146D01*
D02*
G37*
G36*
X100396Y45480D02*
X96270D01*
Y41354D01*
X97162Y41531D01*
X98994Y42756D01*
X100218Y44588D01*
X100396Y45480D01*
D02*
G37*
G36*
X93730D02*
X89604D01*
X89781Y44588D01*
X91006Y42756D01*
X92838Y41531D01*
X93730Y41354D01*
Y45480D01*
D02*
G37*
%LPD*%
D13*
X186000Y53500D02*
D03*
Y70000D02*
D03*
D14*
X185000Y130500D02*
D03*
Y149500D02*
D03*
D19*
X140000Y80000D02*
X186000Y53500D01*
X185000Y130500D02*
X186000Y70000D01*
X140000Y105000D02*
X185000Y150000D01*
D20*
X140000Y105000D02*
D03*
D21*
Y80000D02*
D03*
D22*
X95000Y46750D02*
D03*
M02*
