G04*
G04 #@! TF.GenerationSoftware,Altium Limited,Altium Designer,20.0.13 (296)*
G04*
G04 Layer_Color=65535*
%FSLAX44Y44*%
%MOMM*%
G71*
G01*
G75*
%ADD10C,0.2000*%
%ADD11C,0.2540*%
%ADD12R,1.7000X0.4000*%
D10*
X59000Y36000D02*
Y71000D01*
X42000Y36000D02*
X59000D01*
X42000D02*
Y71000D01*
X59000D01*
X110790Y79800D02*
X126030D01*
Y105200D01*
X110790D02*
X126030D01*
X110790Y117900D02*
X169210D01*
X110790Y67100D02*
Y117900D01*
Y67100D02*
X169210D01*
Y117900D01*
X40000Y113000D02*
Y147000D01*
X60000D01*
Y113000D02*
Y147000D01*
X40000Y113000D02*
X60000D01*
X97000Y77000D02*
X104997D01*
X97000Y105999D02*
X104997D01*
X100999Y109997D02*
Y102000D01*
D11*
X175560Y102660D02*
X180638D01*
X178099D01*
Y117895D01*
X175560Y115356D01*
X14843Y127382D02*
Y142618D01*
X22461D01*
X25000Y140078D01*
Y135000D01*
X22461Y132461D01*
X14843D01*
X19922D02*
X25000Y127382D01*
X30078D02*
X35157D01*
X32618D01*
Y142618D01*
X30078Y140078D01*
X122598Y143222D02*
X117519D01*
X120058D01*
Y130526D01*
X117519Y127987D01*
X114980D01*
X112441Y130526D01*
X127676Y127987D02*
X132754D01*
X130215D01*
Y143222D01*
X127676Y140683D01*
X14843Y67618D02*
Y52382D01*
X22461D01*
X25000Y54922D01*
Y65078D01*
X22461Y67618D01*
X14843D01*
X30078Y52382D02*
X35157D01*
X32618D01*
Y67618D01*
X30078Y65078D01*
D12*
X50500Y38000D02*
D03*
M02*
